<?xml version="1.0" encoding="UTF-8" standalone="no"?>
<!-- Created with Inkscape (http://www.inkscape.org/) -->
<svg
   xmlns:dc="http://purl.org/dc/elements/1.1/"
   xmlns:cc="http://creativecommons.org/ns#"
   xmlns:rdf="http://www.w3.org/1999/02/22-rdf-syntax-ns#"
   xmlns:svg="http://www.w3.org/2000/svg"
   xmlns="http://www.w3.org/2000/svg"
   xmlns:sodipodi="http://sodipodi.sourceforge.net/DTD/sodipodi-0.dtd"
   xmlns:inkscape="http://www.inkscape.org/namespaces/inkscape"
   width="52"
   height="30"
   id="svg2"
   sodipodi:version="0.32"
   inkscape:version="0.46"
   version="1.0"
   sodipodi:docname="helloWorld.svg"
   inkscape:output_extension="org.inkscape.output.svg.inkscape"
   inkscape:export-filename="/home/wooptoo/tmp/helloWorld.png"
   inkscape:export-xdpi="90"
   inkscape:export-ydpi="90">
  <defs
     id="defs4">
    <inkscape:perspective
       sodipodi:type="inkscape:persp3d"
       inkscape:vp_x="0 : 526.18109 : 1"
       inkscape:vp_y="0 : 1000 : 0"
       inkscape:vp_z="744.09448 : 526.18109 : 1"
       inkscape:persp3d-origin="372.04724 : 350.78739 : 1"
       id="perspective10" />
  </defs>
  <sodipodi:namedview
     id="base"
     pagecolor="#000000"
     bordercolor="#666666"
     borderopacity="1.0"
     gridtolerance="10000"
     guidetolerance="10"
     objecttolerance="10"
     inkscape:pageopacity="0"
     inkscape:pageshadow="2"
     inkscape:zoom="16"
     inkscape:cx="32.748741"
     inkscape:cy="9.2354016"
     inkscape:document-units="px"
     inkscape:current-layer="layer1"
     showgrid="false"
     inkscape:window-width="1280"
     inkscape:window-height="972"
     inkscape:window-x="0"
     inkscape:window-y="0" />
  <metadata
     id="metadata7">
    <rdf:RDF>
      <cc:Work
         rdf:about="">
        <dc:format>image/svg+xml</dc:format>
        <dc:type
           rdf:resource="http://purl.org/dc/dcmitype/StillImage" />
      </cc:Work>
    </rdf:RDF>
  </metadata>
  <g
     inkscape:label="Layer 1"
     inkscape:groupmode="layer"
     id="layer1">
    <rect
       style="opacity:1;fill:#000000;fill-opacity:1;fill-rule:evenodd;stroke:none;stroke-width:0.5;stroke-linecap:round;stroke-linejoin:round;stroke-miterlimit:4;stroke-dasharray:none;stroke-dashoffset:0;stroke-opacity:1"
       id="rect2380"
       width="52"
       height="30"
       x="0"
       y="0" />
    <path
       style="font-size:12px;font-style:normal;font-variant:normal;font-weight:bold;font-stretch:normal;text-align:start;line-height:125%;writing-mode:lr-tb;text-anchor:start;fill:#00ff00;fill-opacity:1;stroke:none;stroke-width:1px;stroke-linecap:butt;stroke-linejoin:miter;stroke-opacity:1;font-family:DejaVu Sans Mono;-inkscape-font-specification:DejaVu Sans Mono Bold"
       d="M 6.5937499,3.2255858 L 6.5937499,6.477539 L 5.0937499,6.477539 L 5.0937499,3.2255858 L 6.5937499,3.2255858 M 3.5937499,3.2255858 L 3.5937499,6.477539 L 2.0937499,6.477539 L 2.0937499,3.2255858 L 3.5937499,3.2255858 M 8.7617187,3.2255858 L 10.490234,3.2255858 L 10.490234,6.5595702 L 12.652344,6.5595702 L 12.652344,3.2255858 L 14.380859,3.2255858 L 14.380859,11.973633 L 12.652344,11.973633 L 12.652344,8.0830077 L 10.490234,8.0830077 L 10.490234,11.973633 L 8.7617187,11.973633 L 8.7617187,3.2255858 M 21.634765,11.651367 C 21.236322,11.81543 20.830072,11.938477 20.416015,12.020508 C 20.001948,12.102539 19.564449,12.143555 19.103515,12.143555 C 18.005856,12.143555 17.166013,11.850586 16.583984,11.264648 C 16.005858,10.674806 15.716796,9.8271505 15.716797,8.7216795 C 15.716796,7.6513714 15.996093,6.8056691 16.554687,6.1845702 C 17.113279,5.5634829 17.874997,5.2529363 18.839844,5.2529296 C 19.812495,5.2529363 20.566401,5.5419985 21.101562,6.1201171 C 21.640618,6.6943411 21.910149,7.5048872 21.910156,8.5517577 L 21.910156,9.2490232 L 17.46289,9.2490232 C 17.466794,9.7646505 17.619138,10.149416 17.919922,10.40332 C 18.2207,10.657228 18.669918,10.784181 19.267578,10.78418 C 19.662105,10.784181 20.050776,10.72754 20.433594,10.614258 C 20.8164,10.500978 21.216791,10.321291 21.634765,10.075195 L 21.634765,11.651367 M 20.18164,7.9599608 C 20.173823,7.5068403 20.056636,7.1650438 19.830078,6.9345702 C 19.607417,6.7002005 19.277339,6.5830131 18.839844,6.5830077 C 18.445309,6.5830131 18.130856,6.7041067 17.896484,6.946289 C 17.662107,7.184575 17.523435,7.5244184 17.480469,7.9658202 L 20.18164,7.9599608 M 24.664062,9.2373045 L 24.664062,4.1748046 L 22.923828,4.1748046 L 22.923828,2.8564452 L 26.380859,2.8564452 L 26.380859,9.2373045 C 26.380855,9.7529318 26.460933,10.118166 26.621094,10.333008 C 26.781245,10.547853 27.05273,10.655275 27.435547,10.655273 L 28.80664,10.655273 L 28.80664,11.973633 L 26.955078,11.973633 C 26.138668,11.973633 25.552731,11.762696 25.197265,11.34082 C 24.841794,10.918946 24.66406,10.217775 24.664062,9.2373045 M 31.882812,9.2373045 L 31.882812,4.1748046 L 30.142578,4.1748046 L 30.142578,2.8564452 L 33.599609,2.8564452 L 33.599609,9.2373045 C 33.599605,9.7529318 33.679683,10.118166 33.839844,10.333008 C 33.999995,10.547853 34.27148,10.655275 34.654297,10.655273 L 36.02539,10.655273 L 36.02539,11.973633 L 34.173828,11.973633 C 33.357418,11.973633 32.771481,11.762696 32.416015,11.34082 C 32.060544,10.918946 31.88281,10.217775 31.882812,9.2373045 M 40.443359,6.6474608 C 40.0332,6.6474662 39.710934,6.8291066 39.476562,7.1923827 C 39.242185,7.5517621 39.124998,8.0537148 39.125,8.6982421 C 39.124998,9.342776 39.242185,9.8466817 39.476562,10.209961 C 39.710934,10.569337 40.0332,10.749025 40.443359,10.749023 C 40.857418,10.749025 41.181636,10.569337 41.416015,10.209961 C 41.650386,9.8466817 41.767573,9.342776 41.767578,8.6982421 C 41.767573,8.0537148 41.650386,7.5517621 41.416015,7.1923827 C 41.181636,6.8291066 40.857418,6.6474662 40.443359,6.6474608 M 37.408203,8.6982421 C 37.408202,7.6396527 37.68164,6.8017629 38.228515,6.1845702 C 38.779295,5.5634829 39.517575,5.2529363 40.443359,5.2529296 C 41.373042,5.2529363 42.111323,5.5634829 42.658203,6.1845702 C 43.208978,6.8017629 43.484368,7.6396527 43.484375,8.6982421 C 43.484368,9.7568381 43.208978,10.596681 42.658203,11.217773 C 42.111323,11.834961 41.373042,12.143555 40.443359,12.143555 C 39.517575,12.143555 38.779295,11.834961 38.228515,11.217773 C 37.68164,10.596681 37.408202,9.7568381 37.408203,8.6982421 M 7.9589843,18.225586 L 9.4707031,18.225586 L 10.097656,24.647461 L 10.853515,20.493164 L 12.289062,20.493164 L 13.167969,24.647461 L 13.660156,18.225586 L 15.183594,18.225586 L 14.175781,26.973633 L 12.564453,26.973633 L 11.568359,22.379883 L 10.636719,26.973633 L 9.0371093,26.973633 L 7.9589843,18.225586 M 18.787109,21.647461 C 18.37695,21.647466 18.054684,21.829107 17.820312,22.192383 C 17.585935,22.551762 17.468748,23.053715 17.46875,23.698242 C 17.468748,24.342776 17.585935,24.846682 17.820312,25.209961 C 18.054684,25.569337 18.37695,25.749025 18.787109,25.749023 C 19.201168,25.749025 19.525386,25.569337 19.759765,25.209961 C 19.994136,24.846682 20.111323,24.342776 20.111328,23.698242 C 20.111323,23.053715 19.994136,22.551762 19.759765,22.192383 C 19.525386,21.829107 19.201168,21.647466 18.787109,21.647461 M 15.751953,23.698242 C 15.751952,22.639653 16.02539,21.801763 16.572265,21.18457 C 17.123045,20.563483 17.861325,20.252936 18.787109,20.25293 C 19.716792,20.252936 20.455073,20.563483 21.001953,21.18457 C 21.552728,21.801763 21.828118,22.639653 21.828125,23.698242 C 21.828118,24.756838 21.552728,25.596681 21.001953,26.217773 C 20.455073,26.834961 19.716792,27.143555 18.787109,27.143555 C 17.861325,27.143555 17.123045,26.834961 16.572265,26.217773 C 16.02539,25.596681 15.751952,24.756838 15.751953,23.698242 M 29.140625,22.22168 C 28.953118,22.04981 28.732415,21.920903 28.478515,21.834961 C 28.22851,21.749029 27.953119,21.70606 27.652344,21.706055 C 27.289057,21.70606 26.970698,21.770513 26.697265,21.899414 C 26.42773,22.024419 26.218746,22.208013 26.070312,22.450195 C 25.976559,22.598637 25.910153,22.778325 25.871094,22.989258 C 25.835934,23.200199 25.818356,23.520511 25.818359,23.950195 L 25.818359,26.973633 L 24.101562,26.973633 L 24.101562,20.411133 L 25.818359,20.411133 L 25.818359,21.430664 C 25.986324,21.05567 26.244137,20.766608 26.591797,20.563477 C 26.939448,20.356452 27.345698,20.252936 27.810547,20.25293 C 28.044916,20.252936 28.273431,20.282233 28.496094,20.34082 C 28.72265,20.395514 28.937493,20.477546 29.140625,20.586914 L 29.140625,22.22168 M 31.882812,24.237305 L 31.882812,19.174805 L 30.142578,19.174805 L 30.142578,17.856445 L 33.599609,17.856445 L 33.599609,24.237305 C 33.599605,24.752932 33.679683,25.118166 33.839844,25.333008 C 33.999995,25.547853 34.27148,25.655275 34.654297,25.655273 L 36.02539,25.655273 L 36.02539,26.973633 L 34.173828,26.973633 C 33.357418,26.973633 32.771481,26.762696 32.416015,26.34082 C 32.060544,25.918946 31.88281,25.217775 31.882812,24.237305 M 41.46875,21.342773 L 41.46875,17.856445 L 43.179687,17.856445 L 43.179687,26.973633 L 41.46875,26.973633 L 41.46875,26.000977 C 41.285152,26.379883 41.046871,26.665039 40.753906,26.856445 C 40.46484,27.047851 40.123043,27.143555 39.728515,27.143555 C 38.978513,27.143555 38.396483,26.842774 37.982422,26.241211 C 37.568358,25.63965 37.361327,24.791994 37.361328,23.698242 C 37.361327,22.588872 37.570312,21.73731 37.988281,21.143555 C 38.410154,20.549811 39.009763,20.252936 39.787109,20.25293 C 40.138668,20.252936 40.453121,20.344733 40.730469,20.52832 C 41.011714,20.708014 41.257808,20.979498 41.46875,21.342773 M 39.078125,23.709961 C 39.078123,24.342776 39.183591,24.838869 39.394531,25.198242 C 39.605466,25.557619 39.896481,25.737306 40.267578,25.737305 C 40.638668,25.737306 40.931636,25.557619 41.146484,25.198242 C 41.361323,24.838869 41.468745,24.342776 41.46875,23.709961 C 41.468745,23.077152 41.361323,22.581059 41.146484,22.22168 C 40.931636,21.86231 40.638668,21.682622 40.267578,21.682617 C 39.896481,21.682622 39.605466,21.86231 39.394531,22.22168 C 39.183591,22.581059 39.078123,23.077152 39.078125,23.709961 M 49.90625,18.225586 L 49.90625,21.477539 L 48.40625,21.477539 L 48.40625,18.225586 L 49.90625,18.225586 M 46.90625,18.225586 L 46.90625,21.477539 L 45.40625,21.477539 L 45.40625,18.225586 L 46.90625,18.225586"
       id="text2383" />
  </g>
</svg>
